<svg width="512" height="512" viewBox="0 0 512 512" fill="none" xmlns="http://www.w3.org/2000/svg">
  <rect width="512" height="512" rx="116" fill="#FFF6CC"/>
  <g transform="translate(64 64) scale(0.75)">
    <g stroke="#141B34" stroke-width="16" stroke-linecap="round" stroke-linejoin="round">
      <ellipse cx="256" cy="108" rx="36" ry="88" fill="#FFFFFF"/>
      <ellipse cx="330" cy="128" rx="36" ry="88" transform="rotate(30 330 128)" fill="#FFFFFF"/>
      <ellipse cx="384" cy="182" rx="36" ry="88" transform="rotate(60 384 182)" fill="#FFFFFF"/>
      <ellipse cx="404" cy="256" rx="36" ry="88" transform="rotate(90 404 256)" fill="#FFFFFF"/>
      <ellipse cx="384" cy="330" rx="36" ry="88" transform="rotate(120 384 330)" fill="#FFFFFF"/>
      <ellipse cx="330" cy="384" rx="36" ry="88" transform="rotate(150 330 384)" fill="#FFFFFF"/>
      <ellipse cx="256" cy="404" rx="36" ry="88" fill="#FFFFFF"/>
      <ellipse cx="182" cy="384" rx="36" ry="88" transform="rotate(30 182 384)" fill="#FFFFFF"/>
      <ellipse cx="128" cy="330" rx="36" ry="88" transform="rotate(60 128 330)" fill="#FFFFFF"/>
      <ellipse cx="108" cy="256" rx="36" ry="88" transform="rotate(90 108 256)" fill="#FFFFFF"/>
      <ellipse cx="128" cy="182" rx="36" ry="88" transform="rotate(120 128 182)" fill="#FFFFFF"/>
      <ellipse cx="182" cy="128" rx="36" ry="88" transform="rotate(150 182 128)" fill="#FFFFFF"/>
    </g>
    <circle cx="256" cy="256" r="88" fill="#FFCC00" stroke="#141B34" stroke-width="16"/>
  </g>
</svg>
