<svg width="120" height="120" viewBox="0 0 120 120" fill="none" xmlns="http://www.w3.org/2000/svg">
<path d="M87.388 45.0553C87.425 45.0551 87.4625 45.0551 87.5 45.0551C99.9265 45.0551 110 55.147 110 67.5965C110 79.199 101.25 88.754 90 90M87.388 45.0553C87.462 44.2303 87.5 43.3948 87.5 42.5504C87.5 27.3347 75.188 15 60 15C45.6162 15 33.8117 26.0634 32.6021 40.1596M87.388 45.0553C86.8765 50.738 84.643 55.923 81.214 60.0825M32.6021 40.1596C19.9199 41.3687 10 52.0695 10 65.0915C10 77.2085 18.5888 87.316 30 89.6365M32.6021 40.1596C33.3913 40.0844 34.1911 40.0458 35 40.0458C40.6291 40.0458 45.8237 41.9097 50.0025 45.0551" stroke="#6D5700" stroke-opacity="0.39" stroke-width="4" stroke-linecap="round" stroke-linejoin="round"/>
<path d="M60 65V105M60 65C56.499 65 49.9577 74.9715 47.5 77.5M60 65C63.501 65 70.0425 74.9715 72.5 77.5" stroke="#6D5700" stroke-opacity="0.39" stroke-width="4" stroke-linecap="round" stroke-linejoin="round"/>
</svg>
