<svg width="20" height="20" viewBox="0 0 20 20" fill="none" xmlns="http://www.w3.org/2000/svg">
<path d="M9.99984 4.16675L10.9198 2.87891C11.2623 2.39934 11.4336 2.15956 11.3254 1.93684C11.2173 1.71411 10.9424 1.70136 10.3927 1.67585C10.2625 1.66981 10.1315 1.66675 9.99984 1.66675C5.3975 1.66675 1.6665 5.39771 1.6665 10.0001C1.6665 14.6024 5.3975 18.3334 9.99984 18.3334C14.6023 18.3334 18.3332 14.6024 18.3332 10.0001C18.3332 7.27371 17.0239 4.85315 14.9998 3.33281" stroke="#6D5700" stroke-width="1.5" stroke-linecap="round" stroke-linejoin="round"/>
<path d="M6.66016 9.16997C7.10016 8.81997 7.50016 8.24283 7.75016 8.34997C8.00016 8.45714 7.92016 8.80997 7.92016 9.35997C7.92016 9.90997 7.92016 12.2372 7.92016 13.34" stroke="#6D5700" stroke-width="1.5" stroke-linecap="round"/>
<path d="M13.3352 10.5C13.3352 9.35004 13.3902 9.04004 13.1702 8.67004C12.9502 8.30004 12.4002 8.33204 11.8502 8.33204C11.3002 8.33204 10.9002 8.30004 10.6352 8.60004C10.3102 8.95004 10.4502 9.60004 10.4102 10.5C10.5002 11.7 10.2552 12.65 10.6302 13.05C10.9002 13.38 11.3794 13.33 11.9502 13.34C12.5167 13.3331 12.8602 13.36 13.1402 13.04C13.4502 12.76 13.3002 11.65 13.3352 10.5Z" stroke="#6D5700" stroke-width="1.5" stroke-linecap="round"/>
</svg>
