<svg width="12" height="12" viewBox="0 0 12 12" fill="none" xmlns="http://www.w3.org/2000/svg">
<path d="M6.4462 1.40491L10.7438 4.79774C10.9056 4.92548 11 5.12025 11 5.3264C11 5.69845 10.6984 6 10.3264 6H10V7.75C10 9.1642 10 9.8713 9.56065 10.3106C9.1213 10.75 8.4142 10.75 7 10.75H5C3.58579 10.75 2.87868 10.75 2.43934 10.3106C2 9.8713 2 9.1642 2 7.75V6H1.67358C1.30158 6 1 5.69845 1 5.3264C1 5.12025 1.0944 4.92548 1.2562 4.79774L5.5538 1.40491C5.68085 1.30457 5.83805 1.25 6 1.25C6.16195 1.25 6.31915 1.30457 6.4462 1.40491Z" stroke="#6D5700" stroke-linecap="round" stroke-linejoin="round"/>
<path d="M7.25 10.75V8.5C7.25 8.0327 7.25 7.79905 7.1495 7.625C7.0837 7.511 6.989 7.4163 6.875 7.3505C6.70095 7.25 6.4673 7.25 6 7.25C5.5327 7.25 5.29905 7.25 5.125 7.3505C5.011 7.4163 4.91631 7.511 4.85048 7.625C4.75 7.79905 4.75 8.0327 4.75 8.5V10.75" stroke="#6D5700" stroke-linecap="round" stroke-linejoin="round"/>
</svg>
