<svg width="12" height="12" viewBox="0 0 12 12" fill="none" xmlns="http://www.w3.org/2000/svg">
<path d="M6.44045 3.50828L8.8269 4.14413M5.9289 5.4067L7.1221 5.7246M5.98825 8.9832L6.46555 9.1104C7.8155 9.47005 8.4905 9.6499 9.02225 9.34465C9.554 9.03935 9.7349 8.36815 10.0966 7.0258L10.6081 5.1274C10.9699 3.78503 11.1508 3.11384 10.8438 2.58508C10.5367 2.05632 9.86175 1.87647 8.51175 1.51679L8.03445 1.38962C6.6845 1.02993 6.0095 0.85009 5.47775 1.15537C4.94598 1.46065 4.76511 2.13183 4.40339 3.47421L3.89183 5.3726C3.5301 6.71495 3.34924 7.38615 3.65625 7.9149C3.96326 8.4437 4.63825 8.62355 5.98825 8.9832Z" stroke="#6D5700" stroke-linecap="round"/>
<path d="M6 10.4732L5.52385 10.6028C4.17702 10.9696 3.50361 11.1529 2.9731 10.8417C2.44259 10.5304 2.26215 9.84605 1.90127 8.47735L1.39091 6.5417C1.03003 5.173 0.849591 4.48864 1.15589 3.94951C1.42084 3.48315 2 3.50013 2.75 3.50007" stroke="#6D5700" stroke-linecap="round"/>
</svg>
