<svg width="12" height="12" viewBox="0 0 12 12" fill="none" xmlns="http://www.w3.org/2000/svg">
<path d="M6.6426 9.68235L2.91121 10.3753C2.19551 10.5082 1.83767 10.5746 1.63151 10.3685C1.42536 10.1623 1.49181 9.80445 1.62471 9.0887L2.31761 5.35715C2.42872 4.75881 2.48428 4.45962 2.68151 4.27885C2.87874 4.09808 3.23944 4.0628 3.96085 3.99224C4.65613 3.92423 5.31415 3.68588 6 3L9 6.00025C8.31415 6.68615 8.07565 7.3437 8.00755 8.03905C7.9369 8.76055 7.90155 9.1213 7.7208 9.3185C7.54005 9.5157 7.2409 9.57125 6.6426 9.68235Z" stroke="#6D5700" stroke-linejoin="round"/>
<path d="M5.5 7.60525C5.22025 7.55985 4.96448 7.43815 4.76316 7.23685M4.76316 7.23685C4.56184 7.03555 4.44015 6.77975 4.39474 6.5M4.76316 7.23685L2 10" stroke="#6D5700" stroke-linecap="round"/>
<path d="M6 3C6.35615 2.47455 6.83855 1.5906 7.55325 1.50549C8.0411 1.4474 8.4453 1.85156 9.2536 2.65989L9.3401 2.74639C10.1485 3.55472 10.5526 3.95889 10.4945 4.44675C10.4094 5.16145 9.52545 5.64385 9 6" stroke="#6D5700" stroke-linejoin="round"/>
</svg>
