<svg width="20" height="20" viewBox="0 0 20 20" fill="none" xmlns="http://www.w3.org/2000/svg">
<path d="M9.99984 18.3334C14.6022 18.3334 18.3332 14.6025 18.3332 10.0001C18.3332 5.39771 14.6022 1.66675 9.99984 1.66675C5.39746 1.66675 1.6665 5.39771 1.6665 10.0001C1.6665 14.6025 5.39746 18.3334 9.99984 18.3334Z" stroke="#6D5700" stroke-width="1.5"/>
<path d="M7.9165 9.33309V10.6668C7.9165 11.9328 7.9165 12.5658 8.2963 12.8218C8.67609 13.0776 9.1955 12.7945 10.2344 12.2283L11.4579 11.5614C12.7081 10.8801 13.3332 10.5394 13.3332 9.99992C13.3332 9.46042 12.7081 9.11975 11.4579 8.43842L10.2344 7.77154C9.1955 7.20534 8.67609 6.92224 8.2963 7.1781C7.9165 7.43397 7.9165 8.067 7.9165 9.33309Z" fill="#6D5700"/>
</svg>
