<svg width="20" height="20" viewBox="0 0 20 20" fill="none" xmlns="http://www.w3.org/2000/svg">
<path d="M17.5 5.41675C17.5 6.79746 16.3807 7.91675 15 7.91675C13.6192 7.91675 12.5 6.79746 12.5 5.41675C12.5 4.03604 13.6192 2.91675 15 2.91675C16.3807 2.91675 17.5 4.03604 17.5 5.41675Z" stroke="#6D5700" stroke-width="1.5"/>
<path d="M7.5 10C7.5 11.3807 6.38071 12.5 5 12.5C3.61929 12.5 2.5 11.3807 2.5 10C2.5 8.61925 3.61929 7.5 5 7.5C6.38071 7.5 7.5 8.61925 7.5 10Z" stroke="#6D5700" stroke-width="1.5"/>
<path d="M17.5 14.5833C17.5 15.964 16.3807 17.0833 15 17.0833C13.6192 17.0833 12.5 15.964 12.5 14.5833C12.5 13.2025 13.6192 12.0833 15 12.0833C16.3807 12.0833 17.5 13.2025 17.5 14.5833Z" stroke="#6D5700" stroke-width="1.5"/>
<path d="M7.27393 8.95784L12.6906 6.45825M7.27393 11.0416L12.6906 13.5412" stroke="#6D5700" stroke-width="1.5"/>
</svg>
