<svg width="12" height="12" viewBox="0 0 12 12" fill="none" xmlns="http://www.w3.org/2000/svg">
<path d="M7 10.25V10C7 8.5858 7 7.8787 7.43935 7.43935C7.8787 7 8.5858 7 10 7H10.25" stroke="#6D5700" stroke-linecap="round" stroke-linejoin="round"/>
<path d="M6.5 1.5H5.5C3.61438 1.5 2.67157 1.5 2.08578 2.08578C1.5 2.67157 1.5 3.61438 1.5 5.5V6.5C1.5 8.3856 1.5 9.32845 2.08578 9.9142C2.67157 10.5 3.61438 10.5 5.5 10.5H6.17155C6.5803 10.5 6.7847 10.5 6.96845 10.4239C7.15225 10.3477 7.29675 10.2032 7.5858 9.9142L9.9142 7.5858C10.2032 7.29675 10.3477 7.15225 10.4239 6.96845C10.5 6.7847 10.5 6.5803 10.5 6.17155V5.5C10.5 3.61438 10.5 2.67157 9.9142 2.08578C9.32845 1.5 8.3856 1.5 6.5 1.5Z" stroke="#6D5700" stroke-linecap="round" stroke-linejoin="round"/>
</svg>
